<svg width="135" height="88" viewBox="0 0 135 88" fill="none" xmlns="http://www.w3.org/2000/svg">
<circle cx="91" cy="44" r="44" fill="#3B82F6"/>
<path d="M129 44.5C129 65.2107 112.211 82 91.5 82C70.7893 82 54 65.2107 54 44.5C54 23.7893 70.7893 7 91.5 7C112.211 7 129 23.7893 129 44.5Z" fill="white"/>
<circle cx="91.5" cy="44.5" r="32.5" fill="#3B82F6"/>
<path d="M7.00994 35.4545H10.4759V45.5114C10.4711 46.4536 10.2462 47.2775 9.80114 47.983C9.35606 48.6837 8.74053 49.2282 7.95455 49.6165C7.1733 50.0047 6.26894 50.1989 5.24148 50.1989C4.33239 50.1989 3.50616 50.0402 2.76278 49.723C2.02415 49.4058 1.43466 48.9134 0.994318 48.2457C0.558712 47.5781 0.343277 46.7235 0.348011 45.6818H3.84943C3.86364 46.0559 3.93466 46.3755 4.0625 46.6406C4.19508 46.901 4.37737 47.0975 4.60938 47.2301C4.84138 47.3627 5.11837 47.429 5.44034 47.429C5.77652 47.429 6.06061 47.358 6.29261 47.2159C6.52462 47.0691 6.69981 46.8537 6.81818 46.5696C6.94129 46.2855 7.00521 45.9328 7.00994 45.5114V35.4545ZM26.4116 42.7273C26.4116 44.3277 26.1038 45.6842 25.4883 46.7969C24.8728 47.9096 24.0394 48.7547 22.9883 49.3324C21.9419 49.91 20.7676 50.1989 19.4656 50.1989C18.1587 50.1989 16.9821 49.9077 15.9357 49.3253C14.8893 48.7429 14.0584 47.8977 13.4428 46.7898C12.832 45.6771 12.5266 44.3229 12.5266 42.7273C12.5266 41.1269 12.832 39.7704 13.4428 38.6577C14.0584 37.545 14.8893 36.6998 15.9357 36.1222C16.9821 35.5445 18.1587 35.2557 19.4656 35.2557C20.7676 35.2557 21.9419 35.5445 22.9883 36.1222C24.0394 36.6998 24.8728 37.545 25.4883 38.6577C26.1038 39.7704 26.4116 41.1269 26.4116 42.7273ZM22.8178 42.7273C22.8178 41.7803 22.6829 40.9801 22.413 40.3267C22.1478 39.6733 21.7643 39.1785 21.2624 38.8423C20.7653 38.5062 20.1663 38.3381 19.4656 38.3381C18.7695 38.3381 18.1706 38.5062 17.6687 38.8423C17.1668 39.1785 16.7809 39.6733 16.511 40.3267C16.2459 40.9801 16.1133 41.7803 16.1133 42.7273C16.1133 43.6742 16.2459 44.4744 16.511 45.1278C16.7809 45.7812 17.1668 46.276 17.6687 46.6122C18.1706 46.9484 18.7695 47.1165 19.4656 47.1165C20.1663 47.1165 20.7653 46.9484 21.2624 46.6122C21.7643 46.276 22.1478 45.7812 22.413 45.1278C22.6829 44.4744 22.8178 43.6742 22.8178 42.7273ZM28.4641 50V35.4545H34.5295C35.6185 35.4545 36.5299 35.6084 37.2638 35.9162C38.0025 36.224 38.5565 36.6548 38.9258 37.2088C39.2998 37.7628 39.4869 38.4044 39.4869 39.1335C39.4869 39.6875 39.3709 40.1823 39.1388 40.6179C38.9068 41.0488 38.5872 41.4062 38.18 41.6903C37.7728 41.9744 37.3017 42.1733 36.7667 42.2869V42.429C37.3538 42.4574 37.896 42.616 38.3931 42.9048C38.895 43.1937 39.2975 43.5961 39.6005 44.1122C39.9035 44.6236 40.055 45.2296 40.055 45.9304C40.055 46.7116 39.8562 47.41 39.4585 48.0256C39.0607 48.6364 38.4854 49.1193 37.7326 49.4744C36.9798 49.8248 36.0659 50 34.9911 50H28.4641ZM31.9798 47.1662H34.1531C34.9154 47.1662 35.4764 47.0218 35.8363 46.733C36.2009 46.4441 36.3832 46.0417 36.3832 45.5256C36.3832 45.1515 36.2956 44.8295 36.1204 44.5597C35.9452 44.285 35.6966 44.0743 35.3746 43.9276C35.0527 43.776 34.6668 43.7003 34.217 43.7003H31.9798V47.1662ZM31.9798 41.4347H33.9258C34.3093 41.4347 34.6502 41.3707 34.9485 41.2429C35.2468 41.1151 35.4788 40.9304 35.6445 40.6889C35.815 40.4474 35.9002 40.1562 35.9002 39.8153C35.9002 39.3277 35.7274 38.9441 35.3817 38.6648C35.0361 38.3854 34.5697 38.2457 33.9826 38.2457H31.9798V41.4347Z" fill="#3B82F6"/>
<path d="M81.369 40.206C81.2885 39.9077 81.1701 39.6449 81.0138 39.4176C80.8576 39.1856 80.6658 38.9891 80.4386 38.8281C80.2113 38.6671 79.9509 38.5464 79.6573 38.4659C79.3638 38.3807 79.0418 38.3381 78.6914 38.3381C77.9859 38.3381 77.3751 38.5085 76.859 38.8494C76.3477 39.1903 75.9523 39.6875 75.6729 40.3409C75.3936 40.9896 75.2539 41.7779 75.2539 42.706C75.2539 43.6387 75.3888 44.4342 75.6587 45.0923C75.9286 45.7505 76.3192 46.2524 76.8306 46.598C77.342 46.9437 77.9622 47.1165 78.6914 47.1165C79.3353 47.1165 79.8799 47.0123 80.3249 46.804C80.7747 46.5909 81.1156 46.2902 81.3477 45.902C81.5797 45.5137 81.6957 45.0568 81.6957 44.5312L82.3491 44.6094H78.8121V42.0455H85.0835V43.9702C85.0835 45.2723 84.8065 46.3873 84.2525 47.3153C83.7032 48.2434 82.9457 48.956 81.9798 49.4531C81.0186 49.9503 79.913 50.1989 78.663 50.1989C77.2757 50.1989 76.0565 49.8982 75.0053 49.2969C73.9542 48.6955 73.1351 47.8385 72.5479 46.7259C71.9608 45.6084 71.6673 44.2827 71.6673 42.7486C71.6673 41.5554 71.8448 40.4972 72.1999 39.5739C72.555 38.6458 73.0498 37.8598 73.6843 37.2159C74.3235 36.572 75.0621 36.0843 75.9002 35.7528C76.743 35.4214 77.6497 35.2557 78.6204 35.2557C79.4632 35.2557 80.2468 35.3764 80.9712 35.6179C81.7004 35.8594 82.3443 36.2003 82.9031 36.6406C83.4665 37.081 83.9234 37.6042 84.2738 38.2102C84.6242 38.8163 84.842 39.4815 84.9272 40.206H81.369ZM87.1555 50V35.4545H93.1641C94.2531 35.4545 95.1929 35.6676 95.9837 36.0938C96.7791 36.5152 97.3923 37.1046 97.8232 37.8622C98.254 38.6151 98.4695 39.491 98.4695 40.4901C98.4695 41.4938 98.2493 42.3722 97.8089 43.125C97.3733 43.8731 96.7507 44.4531 95.9411 44.8651C95.1314 45.277 94.1702 45.483 93.0575 45.483H89.3501V42.7131H92.4041C92.9344 42.7131 93.3771 42.6207 93.7322 42.4361C94.0921 42.2514 94.3643 41.9934 94.549 41.6619C94.7337 41.3258 94.826 40.9351 94.826 40.4901C94.826 40.0402 94.7337 39.652 94.549 39.3253C94.3643 38.9938 94.0921 38.7382 93.7322 38.5582C93.3724 38.3783 92.9297 38.2884 92.4041 38.2884H90.6712V50H87.1555ZM108.065 39.8153C108.017 39.2945 107.807 38.8897 107.433 38.6009C107.063 38.3073 106.535 38.1605 105.849 38.1605C105.394 38.1605 105.015 38.2197 104.712 38.3381C104.409 38.4564 104.182 38.6198 104.031 38.8281C103.879 39.0317 103.801 39.2661 103.796 39.5312C103.787 39.7491 103.829 39.9408 103.924 40.1065C104.023 40.2723 104.165 40.419 104.35 40.5469C104.54 40.67 104.767 40.7789 105.032 40.8736C105.297 40.9683 105.595 41.0511 105.927 41.1222L107.177 41.4062C107.897 41.5625 108.531 41.7708 109.08 42.0312C109.634 42.2917 110.098 42.6018 110.472 42.9616C110.851 43.3215 111.138 43.7358 111.332 44.2045C111.526 44.6733 111.625 45.1989 111.63 45.7812C111.625 46.6998 111.393 47.4882 110.934 48.1463C110.475 48.8045 109.814 49.3087 108.952 49.6591C108.095 50.0095 107.061 50.1847 105.849 50.1847C104.632 50.1847 103.571 50.0024 102.667 49.6378C101.763 49.2732 101.059 48.7192 100.558 47.9759C100.056 47.2325 99.7976 46.2926 99.7834 45.1562H103.15C103.178 45.625 103.304 46.0156 103.526 46.3281C103.749 46.6406 104.054 46.8774 104.442 47.0384C104.835 47.1993 105.29 47.2798 105.806 47.2798C106.28 47.2798 106.682 47.2159 107.013 47.0881C107.35 46.9602 107.608 46.7827 107.788 46.5554C107.968 46.3281 108.06 46.0677 108.065 45.7741C108.06 45.4995 107.975 45.2652 107.809 45.071C107.643 44.8722 107.388 44.7017 107.042 44.5597C106.701 44.4129 106.265 44.2779 105.735 44.1548L104.215 43.7997C102.956 43.5109 101.964 43.0445 101.239 42.4006C100.515 41.7519 100.155 40.8759 100.16 39.7727C100.155 38.8731 100.397 38.0848 100.884 37.4077C101.372 36.7306 102.047 36.2027 102.908 35.8239C103.77 35.4451 104.753 35.2557 105.856 35.2557C106.983 35.2557 107.96 35.4474 108.789 35.831C109.622 36.2098 110.269 36.7424 110.728 37.429C111.187 38.1155 111.422 38.911 111.431 39.8153H108.065Z" fill="white"/>
</svg>
